<?xml version="1.0" encoding="UTF-8" standalone="no"?>
<svg width="100" height="100" viewBox="0 0 100 100" xmlns="http://www.w3.org/2000/svg">
  <defs>
    <pattern id="chat-pattern" x="0" y="0" width="50" height="50" patternUnits="userSpaceOnUse">
      <path d="M1 45 l4 4 l4 -4" stroke="rgba(0,0,0,0.05)" fill="none"/>
      <path d="M21 45 l4 4 l4 -4" stroke="rgba(0,0,0,0.05)" fill="none"/>
      <path d="M41 45 l4 4 l4 -4" stroke="rgba(0,0,0,0.05)" fill="none"/>
      <path d="M11 35 l4 4 l4 -4" stroke="rgba(0,0,0,0.05)" fill="none"/>
      <path d="M31 35 l4 4 l4 -4" stroke="rgba(0,0,0,0.05)" fill="none"/>
      <path d="M1 25 l4 4 l4 -4" stroke="rgba(0,0,0,0.05)" fill="none"/>
      <path d="M21 25 l4 4 l4 -4" stroke="rgba(0,0,0,0.05)" fill="none"/>
      <path d="M41 25 l4 4 l4 -4" stroke="rgba(0,0,0,0.05)" fill="none"/>
      <path d="M11 15 l4 4 l4 -4" stroke="rgba(0,0,0,0.05)" fill="none"/>
      <path d="M31 15 l4 4 l4 -4" stroke="rgba(0,0,0,0.05)" fill="none"/>
      <path d="M1 5 l4 4 l4 -4" stroke="rgba(0,0,0,0.05)" fill="none"/>
      <path d="M21 5 l4 4 l4 -4" stroke="rgba(0,0,0,0.05)" fill="none"/>
      <path d="M41 5 l4 4 l4 -4" stroke="rgba(0,0,0,0.05)" fill="none"/>
    </pattern>
  </defs>
  <rect width="100%" height="100%" fill="url(#chat-pattern)"/>
</svg>